<svg xmlns="http://www.w3.org/2000/svg" viewBox="0 0 1210 400" width="121" height="40"><path d="M24 56.9H0v.6c22 8.7 32.8 25.4 41.4 64.3l59.2 273.4H114L54.5 119.6C44.2 72.4 33.4 63.7 24 56.9zm45 0H46.5v.6c10.1 12.1 13 27.1 21 59.8l60.1 277.9H141L80.8 116.4C72.3 80.6 70.9 70.7 69 56.9zM150.2 376l8.9-18.5-50-235.8c-8.8-36.6-6.8-53.4-3.2-64.8H86.5c-.3 14.9.4 27.3 7.6 58.6L150.2 376zm17.9-37.4l9-18.8-40.2-194c-7.5-37.7-4.3-57.3 8.2-68.4v-.6h-21.4c-6.6 14-8.6 28.1-1 65.3l45.4 216.5zm18-37.5l9-18.9-30.5-155.3c-8.4-43.7 1.7-62.8 36-69.4v-.6h-31.8c-9.2 4.5-28.6 18.4-17.7 70.2l35 174zm59.7-123.8l.9.6c21.3-70.7 28.1-102 9.3-121.1h-26.6v.6c29.7 10.6 36.4 40.9 16.4 119.9zm1.8 1.2l.9.6c33.5-79.3 42.2-101 56-121.7v-.6h-27.2v.8c2.8 31.7-8.1 60.8-29.7 120.9zm82.5-121.6c-28.3 16.5-45.1 47.2-80.7 122.8l.9.6c40.8-76.5 64.1-107 116.8-122.8v-.6h-37zm8.7 125.7c-.4-8.1-5-12.3-12.4-12.3-17.6 0-36.7 27.9-48.2 56.9h.7c11.6-25.8 29.4-51.5 39.7-51.5 4.3 0 7.1 2.1 7.4 7.5.5 11.3-18.1 53.7-25.8 72l-56.5 140.1h14l56-139c8-20.1 25.8-60.3 25.1-73.7zm25.1-1.7c-.6-12.4-8.6-20.9-22.6-20.9-30.4 0-53.8 32.6-65.2 67.1h.6c11.9-30.8 32.2-61.7 56.7-61.7 10.7 0 16.9 5.9 17.5 16.2.9 16.6-15.9 54.2-23.9 75.1l-55.5 138.4h13.9L340 257.7c9.1-22 24.9-58 23.9-76.8zm25.1-1.6c-.9-17.2-12.3-30.1-32.7-30.1-43.8 0-70.5 37.8-82.1 77.8h.6c12.2-37.3 37.4-72.4 73.7-72.4 17.2 0 26.9 10.7 27.7 25.8 1.1 20.9-13.2 54.7-22.7 78.4l-54 136.3H314l53-135.8c9.4-24.7 23.3-55.8 22-80zm25.2-1c-1.2-22-16-39.2-42.9-39.2-55.7 0-87.8 41.4-99 88h.7c12.4-43.3 40.8-82.6 90.6-82.6 23.6 0 36.7 14.5 37.8 34.3 1.4 26.3-11 55.3-20.9 81.6L328 395.1h14l51.5-133.6c10.8-27.4 22.2-54.8 20.7-83.2zm136.3-13.5c-1.2-24.7-15.8-36-33.6-36-32.2 0-60.3 25.4-77.4 60 .1-3.9.1-8-.1-12.2-1.4-26.8-19.7-47.8-53-47.8-69.8 0-104.4 46-115.8 98.2h.6c12.1-48.9 44.7-92.8 107.5-92.8 30.1 0 46.6 18.8 47.9 42.9 1.7 31.7-8.8 56.4-19.7 84.8L356 395h14l50.5-132c3.4-9.1 6.6-17.5 9.5-25.8 10.2-20.9 22.5-42.4 28.9-42.4 4.8 0 6.3 4.1 6.6 7.8 1.1 14-4 36.9-15 56.6l.6.5c12.8-11.3 27.1-45.1 26.2-62.8-.4-7-3.3-11.8-10.3-11.8-10.9 0-24.7 22.4-34.9 46 1.2-3.7 2.2-7.5 3.2-11.3 10.9-23.6 26-43.8 40.4-43.8 8.6 0 13.7 5.9 14.2 15.6 1.2 23.6-20 58-37.7 69.2l.6.5c24.1-10.7 50.7-46.2 49.2-75.1-.7-12.9-7.5-19.9-18.2-19.9-17.7 0-35 20.6-46.8 46.2.4-2 .7-4.1 1.1-6.1 13.2-27.5 32.8-49.3 54.4-49.3 11.8 0 20.8 8.1 21.6 23.6 1.8 34.3-30.6 70.8-60.1 81.6l.6.5c36-9.1 73.7-47.8 71.6-87.5-1-18.8-11.7-27.9-25.6-27.9-24.9 0-47.1 22.5-61.5 52.3.2-1.6.2-3.3.3-5 15.9-32 40.9-56.3 69.8-56.3 15.6 0 28.4 10.2 29.6 31.7 2.4 45.6-40.1 84.3-83.1 93.9l.6.5c50.2-7.3 96.9-48.7 94.2-99.7zM648 392.9l-.4.8c69.5-18.8 134.7-140 140.2-199.4 1.4-15.3-5.3-24.3-16.6-25.8-16.6-2.3-37.8 10.3-53.2 30l.5.6c12.8-15.4 30.1-26.3 42.4-24.6 8 1.1 13.3 8.1 12.3 19.5-4.8 52.1-64.9 173-125.2 198.9zm-1.1 2.3l-.3.6c94.6-11.2 164.5-126 171.5-200.1 2.3-24.4-9-37.4-25.6-39.7-25.2-3.5-56.6 13.4-75.9 40.6l.5.6c18.5-23.9 44.2-38.1 64.6-35.3 14.5 2 23.2 12.9 21.3 32.8-6.3 67.4-70.5 182.6-156.1 200.5zm201-198.9c3.1-32.9-11.6-49.8-34.7-53-33.2-4.6-73.6 15.7-98.1 51.4l.5.6c22.4-30.8 58.4-49.9 87.3-46 19.8 2.7 33.1 17.7 30.4 46.6C825.6 278 747.4 390.7 646 397l-.3.6c112.8-.6 193.8-111.9 202.2-201.3zm-13.4-65.6c-41.8-5.7-92.3 18.9-120.8 62l.5.6c26.9-38.8 72.5-61.8 110-56.6 25.2 3.5 42.4 22.5 38.9 59.9-8.9 95.3-89.2 202.5-217.8 202.1l-.3.7c133.5 5 223.8-100 233.4-202.5 3.6-41.3-15.6-62.3-43.9-66.2zM632.2 398.6c-62-2.6-93.3-32.9-90.2-68 1.3-15 6.9-28.8 11.8-41.2l71.8-185.5c9-23.1 25.7-58.1 12.5-75.3L621.8 32v1c13.9 15.6 1 41.1-8.4 67l-71.5 184.1c-4.8 11.8-9.8 24.5-11.2 40.1-3.3 38.3 30.7 72.9 101.3 75l.2-.6zm8.7-298.5l-75.3 194.1c-4.8 12.3-11.2 27.7-12.4 43.3-2.8 31.9 25 58 79.5 60l.3-.6c-46-2.6-71.1-24.4-68.6-53 1.3-15 8.3-32.6 13.1-44.4l77.8-199.8c7-18.3 27.6-63.1 16.5-78.1l-17.7 3.6v1c11.9 17-5 53.6-13.2 73.9zm29.6-4.2l-81.1 208.6c-4.8 12.3-12.5 31.5-13.8 46-2.2 25.5 18.6 43 57.7 45.8l.2-.5c-8.1-.9-16-2.8-23.6-5.6-16-5.8-24-17-22.6-32.7 1.3-15 9.1-35.3 13.9-47.6l83.1-213.4c4.2-11.3 27.9-65.2 22.2-81.7L689.4 18v1c9 12.9-13.4 62.9-18.9 76.9zm-57.3 218.7c-4.8 12.4-13.3 34.7-14.6 49.2-1.6 18 14.2 27.8 35.4 31.1l.3-.6c-14.5-2.6-25.7-9.5-24.4-24 1.2-14 11-39 15.2-50.3l86.5-222c2.1-5.9 34.9-85.4 30.2-90.5l-17.7 3.6v1c.7 19.4-21.8 72.4-26.4 84.9l-84.5 217.6zm23.8 10.3c-4.8 11.8-15.1 37.1-15.7 51.2-.3 6 4.3 13.2 10.4 16.2 1 .5 2 .9 3 1.2l.4-.9c-1.7-1.1-3.8-5.1-3.3-10.8 1.2-14 12.3-39.2 17.1-51.5L778.2.3l-17.8 3.6c1 4.2-34 90.3-35.5 94.6L637 324.9zm373.2 68.8l-.3.6c60-8.6 121.8-134.5 123.2-218.4.3-18.3-10.1-37-37.3-41.5l-.3.7c17.7 4.7 24.6 16.2 24.3 31.7-1.4 82.1-61.4 218-109.6 226.9zm-1.1 2.3c82-8.5 147.9-114 149.5-201.3.4-23.7-15.1-56.8-61.9-62l-.3.6c36.8 5.6 49.8 31.2 49.4 52.3-1.5 85.5-65.8 200.3-136.4 209.8l-.3.6zm-.8 1.7c104.6-7.7 174.6-93.5 176.2-184.1.5-29.1-20.1-77-87-82.4l-.3.6c55.4 5.8 75.1 46.3 74.6 72.8-1.6 88.9-70.5 183.1-163.2 192.6l-.3.5zm90-268.3l-.3.6c77.1 6.5 99.3 61.3 98.7 93.2-1.6 92.2-73.1 166.8-188.9 175.5l-.3.6c126.6-7.6 200.8-73.1 202.4-167 .7-34.5-24.5-97.8-111.6-102.9zM896.2 304.8c1.6-91.7 80.6-166.8 189-175.5l.3-.6c-121.4 7.5-200.9 73-202.5 166.4-.6 34.5 24.6 98.4 111.8 103.4l.3-.6c-76.8-5.3-99.5-61.3-98.9-93.1zm25.5 18.8c1.5-87.3 72.7-183.2 162.8-192.7l.3-.6c-100.9 7.7-174.8 94-176.3 183.6-.5 29.1 20.1 78.6 87.1 83l.3-.6c-58.1-5.2-74.7-46.2-74.2-72.7zm25.4 18.8c1.5-83.4 68.5-200.4 136.6-209.8l.3-.6c-79.9 8.5-148.1 115.6-149.6 200.7-.4 23.7 15.6 58.8 61.9 62.6l.3-.6c-36.9-4.5-49.9-31.2-49.5-52.3zm25.5 18.8c1.4-78.9 63.6-217.5 110.3-226.9l.3-.6c-57.9 8.5-121.9 136.6-123.3 217.9-.3 18.3 9 39.1 37.3 42.1l.3-.6c-19.4-3.3-25.2-16.3-24.9-31.9z" fill="#15326f"/></svg>